<svg id="Layer_1" data-name="Layer 1" xmlns="http://www.w3.org/2000/svg" viewBox="0 0 48 48">
  <path d="M46.921,36.779c.04-.256,.079-.513,.079-.779V12c0-.268-.038-.525-.079-.782l-14.064,12.781,14.065,12.78Z" id="id_103" style="fill: rgb(240, 242, 245);"></path>
  <path d="M20.633,26.285c.915,.837,2.11,1.297,3.367,1.297s2.451-.459,3.362-1.292L46.15,9.216c-.899-1.335-2.423-2.216-4.15-2.216H6c-1.727,0-3.252,.881-4.151,2.217L20.633,26.285Z" id="id_104" style="fill: rgb(240, 242, 245);"></path>
  <path d="M1.079,11.219c-.041,.256-.079,.513-.079,.781v24c0,.267,.038,.524,.079,.779l14.065-12.78L1.079,11.219Z" id="id_105" style="fill: rgb(240, 242, 245);"></path>
  <path d="M31.37,25.351l-2.66,2.417c-1.278,1.169-2.951,1.814-4.709,1.814s-3.433-.646-4.715-1.819l-2.655-2.412L1.849,38.782c.899,1.336,2.423,2.218,4.151,2.218H42c1.728,0,3.253-.882,4.151-2.218l-14.782-13.431Z" id="id_106" style="fill: rgb(240, 242, 245);"></path>
</svg>